<?xml version="1.0" standalone="no"?>
<!DOCTYPE svg PUBLIC "-//W3C//DTD SVG 20010904//EN"
 "http://www.w3.org/TR/2001/REC-SVG-20010904/DTD/svg10.dtd">
<svg version="1.0" xmlns="http://www.w3.org/2000/svg"
 width="6024.000000pt" height="5315.000000pt" viewBox="0 0 6024.000000 5315.000000"
 preserveAspectRatio="xMidYMid meet">

<g transform="translate(0.000000,5315.000000) scale(0.100000,-0.100000)"
fill="#000000" stroke="none">
<path d="M0 26575 l0 -26575 30115 0 30115 0 0 26575 0 26575 -30115 0 -30115
0 0 -26575z m45220 16045 c113 -5 230 -12 260 -15 217 -19 317 -29 474 -51
842 -114 1648 -364 2411 -745 240 -120 541 -289 538 -302 -1 -5 -117 -143
-258 -308 -142 -165 -255 -303 -251 -306 5 -5 396 -106 1009 -261 103 -26 187
-51 188 -55 0 -5 -212 -259 -473 -565 -260 -306 -493 -582 -518 -612 -24 -30
-299 -354 -610 -719 -807 -947 -1639 -1927 -2355 -2770 l-620 -731 -3 265 -2
265 -125 0 -125 0 0 -510 c0 -280 2 -510 4 -510 17 0 950 171 954 174 5 5 -27
200 -37 227 -5 14 -31 11 -216 -23 -115 -21 -218 -37 -227 -36 -13 2 154 204
573 698 325 382 609 715 632 740 23 25 301 351 617 724 1000 1179 1717 2024
1740 2048 12 13 240 280 508 595 268 315 490 569 493 565 4 -4 116 -260 250
-569 134 -310 246 -563 249 -563 3 0 117 132 253 294 137 162 254 299 261 305
11 9 35 -15 113 -111 664 -819 1145 -1734 1438 -2733 127 -432 223 -925 269
-1385 33 -320 39 -441 38 -800 0 -506 -31 -878 -112 -1347 -243 -1407 -873
-2716 -1831 -3808 -128 -146 -477 -500 -614 -623 -978 -874 -2094 -1469 -3340
-1781 -1480 -370 -3094 -289 -4519 226 -964 348 -1839 874 -2604 1566 -276
250 -623 620 -866 925 -1123 1410 -1719 3173 -1683 4982 6 272 11 366 33 610
3 36 14 135 25 220 166 1336 677 2605 1484 3685 386 517 873 1022 1365 1415
660 529 1387 942 2170 1233 960 356 2033 525 3040 477z m-31260 -3063 c0 -332
3 -949 7 -1370 l6 -767 5857 0 5857 0 6 767 c4 421 7 1038 7 1370 l0 603 2838
0 c2800 0 2838 0 2920 -20 329 -79 570 -336 627 -668 13 -77 15 -1751 12
-14677 -2 -13948 -3 -14593 -20 -14655 -28 -100 -98 -238 -163 -320 -106 -132
-275 -240 -449 -286 -68 -18 -391 -19 -11635 -19 -11229 0 -11567 1 -11635 19
-95 25 -237 93 -312 150 -157 119 -270 303 -309 504 -12 63 -14 2120 -14
14650 0 14202 1 14579 19 14668 54 263 242 488 494 592 154 65 -66 60 3050 61
l2837 1 0 -603z m24135 -20447 c253 -178 595 -419 760 -535 165 -116 363 -256
440 -310 438 -309 1045 -736 1280 -901 149 -105 347 -245 440 -310 94 -66 253
-179 355 -250 453 -319 994 -700 1210 -852 129 -91 303 -214 385 -272 83 -59
332 -235 555 -392 223 -156 621 -436 884 -622 267 -188 485 -335 492 -332 8 3
150 101 317 219 166 117 446 314 622 438 589 415 928 654 1155 814 304 215
843 595 1130 797 275 193 1544 1087 1610 1133 46 33 813 573 1235 870 127 89
390 274 585 412 195 137 495 348 665 468 171 120 316 222 323 228 9 7 12
-1070 12 -5382 l0 -5391 -7660 0 -7660 0 0 5390 0 5389 203 -142 c111 -79 409
-289 662 -467z"/>
<path d="M30310 24600 l0 -13370 -10215 0 -10214 0 -3 -217 c-2 -120 -2 -221
0 -225 2 -5 4717 -8 10478 -8 l10474 0 0 13595 0 13595 -260 0 -260 0 0
-13370z"/>
</g>
</svg>
