<?xml version="1.0" standalone="no"?>
<!DOCTYPE svg PUBLIC "-//W3C//DTD SVG 20010904//EN"
 "http://www.w3.org/TR/2001/REC-SVG-20010904/DTD/svg10.dtd">
<svg version="1.0" xmlns="http://www.w3.org/2000/svg"
 width="532.000000pt" height="469.000000pt" viewBox="0 0 532.000000 469.000000"
 preserveAspectRatio="xMidYMid meet">

<g transform="translate(0.000000,469.000000) scale(0.100000,-0.100000)"
fill="#000000" stroke="none">
<path d="M1484 3874 c-4 -14 -4 -54 -1 -88 3 -34 3 -66 -1 -72 -4 -6 -59 -28
-122 -50 l-115 -40 -9 -67 c-4 -37 -5 -110 -1 -162 l7 -95 514 0 514 0 0 120
c0 107 2 120 18 121 10 0 12 3 5 6 -7 2 -13 12 -13 22 0 29 -27 57 -67 70 -33
11 -49 28 -96 96 -31 46 -57 88 -57 94 0 6 -4 11 -10 11 -5 0 -10 4 -10 10 0
5 -8 19 -17 30 -17 19 -29 20 -275 20 l-258 0 -6 -26z"/>
<path d="M4400 3753 c-48 -53 -74 -107 -65 -131 3 -8 0 -19 -7 -24 -9 -5 -6
-8 9 -8 49 0 36 -21 -132 -214 -39 -45 -105 -122 -147 -173 -62 -75 -77 -89
-81 -73 -9 34 -27 22 -27 -18 0 -21 2 -41 5 -44 9 -9 80 7 77 17 -2 6 -10 9
-18 7 -8 -2 -14 0 -14 3 0 4 46 58 102 121 57 63 107 123 113 133 5 10 43 56
84 100 41 45 80 89 86 97 9 12 14 7 33 -30 12 -26 27 -46 32 -46 6 0 8 5 5 10
-4 6 30 47 74 92 45 44 81 85 81 90 0 6 -16 32 -35 58 -27 36 -47 52 -82 64
-26 9 -48 16 -49 16 -1 0 -21 -21 -44 -47z"/>
<path d="M2682 2170 l3 -1180 -908 0 -908 0 11 -20 c11 -21 15 -21 905 -20
492 1 903 4 915 7 l20 5 0 1194 c0 1189 0 1194 -20 1194 -20 0 -20 -4 -18
-1180z"/>
<path d="M3914 2227 c-27 -18 -116 -87 -199 -153 -148 -118 -349 -276 -386
-303 -10 -7 -19 -20 -19 -28 0 -8 -5 -11 -12 -7 -50 28 15 -19 352 -255 36
-25 121 -85 189 -134 l123 -89 57 38 c31 21 58 41 61 45 3 3 43 32 90 64 47
32 111 77 142 99 31 23 115 81 186 131 150 104 148 96 44 179 -454 364 -560
446 -575 446 -3 0 -27 -15 -53 -33z"/>
</g>
</svg>
