<?xml version="1.0" standalone="no"?>
<!DOCTYPE svg PUBLIC "-//W3C//DTD SVG 20010904//EN"
 "http://www.w3.org/TR/2001/REC-SVG-20010904/DTD/svg10.dtd">
<svg version="1.0" xmlns="http://www.w3.org/2000/svg"
 width="4675.000000pt" height="4675.000000pt" viewBox="0 0 4675.000000 4675.000000"
 preserveAspectRatio="xMidYMid meet">

<g transform="translate(0.000000,4675.000000) scale(0.100000,-0.100000)"
fill="#000000" stroke="none">
<path d="M8305 38481 c-89 -22 -163 -80 -202 -159 l-28 -57 -3 -647 -3 -648
15306 0 15306 0 -3 648 -3 647 -28 57 c-31 62 -71 101 -145 139 l-47 24
-15060 1 c-8283 1 -15073 -1 -15090 -5z"/>
<path d="M9180 27487 c0 -7396 1 -8078 16 -8128 47 -159 147 -267 307 -332
l52 -22 5787 -5 5787 -5 -1240 -2060 c-682 -1133 -1468 -2438 -1746 -2900
-278 -462 -758 -1258 -1066 -1770 -308 -511 -783 -1301 -1057 -1755 -273 -454
-510 -860 -528 -902 -56 -134 -66 -195 -66 -378 0 -150 3 -173 27 -253 88
-286 256 -487 515 -617 131 -66 250 -92 417 -94 203 -1 347 37 519 138 84 50
222 178 280 260 24 34 224 363 446 731 451 750 1215 2019 2125 3530 334 556
719 1195 855 1420 136 226 503 835 816 1355 313 520 781 1297 1039 1727 259
430 473 782 478 783 4 0 7 -2038 7 -4529 0 -4979 -5 -4604 60 -4784 85 -235
297 -459 528 -557 126 -54 231 -74 382 -74 152 -1 240 15 368 64 152 58 338
205 438 345 49 70 108 193 141 300 l28 90 5 4529 5 4530 670 -1150 c368 -632
879 -1509 1135 -1949 523 -898 860 -1476 2504 -4298 631 -1083 1158 -1987
1173 -2010 49 -80 136 -178 209 -237 482 -387 1191 -242 1479 303 134 253 149
548 43 816 -16 41 -157 293 -312 560 -156 267 -482 828 -726 1246 -243 418
-473 812 -510 875 -37 63 -181 311 -320 550 -140 239 -395 678 -568 975 -173
297 -338 581 -367 630 -29 50 -594 1019 -1255 2155 -662 1136 -1248 2141
-1302 2234 -54 93 -98 170 -98 172 0 2 2359 4 5243 4 4615 0 5250 2 5300 15
173 45 307 178 352 350 13 53 15 915 15 8127 l0 8068 -14195 0 -14195 0 0
-8073z m27198 -244 l2 -7143 -12975 0 -12975 0 0 7138 c0 3926 3 7142 7 7145
3 4 5841 6 12972 5 l12966 -3 3 -7142z"/>
</g>
</svg>
